<svg width="31" height="25" viewBox="0 0 31 25" fill="none" xmlns="http://www.w3.org/2000/svg">
<path d="M7.6 25C6.13333 25 4.93333 24.7024 4 24.1071C3.06667 23.5119 2.3 22.7513 1.7 21.8254C1.03333 20.7011 0.566667 19.5437 0.3 18.3532C0.0999999 17.0966 0 16.0714 0 15.2778C0 12.037 0.833333 9.09392 2.5 6.44842C4.16667 3.80291 6.76667 1.65344 10.3 0L11.2 1.78571C9.13333 2.6455 7.33333 4.00132 5.8 5.85318C4.33333 7.70503 3.6 9.58995 3.6 11.5079C3.6 12.3016 3.7 12.996 3.9 13.5913C4.96667 12.7315 6.2 12.3016 7.6 12.3016C9.33333 12.3016 10.8333 12.8638 12.1 13.9881C13.3667 15.1124 14 16.6667 14 18.6508C14 20.5026 13.3667 22.0238 12.1 23.2143C10.8333 24.4048 9.33333 25 7.6 25ZM24.6 25C23.1333 25 21.9333 24.7024 21 24.1071C20.0667 23.5119 19.3 22.7513 18.7 21.8254C18.0333 20.7011 17.5667 19.5437 17.3 18.3532C17.1 17.0966 17 16.0714 17 15.2778C17 12.037 17.8333 9.09392 19.5 6.44842C21.1667 3.80291 23.7667 1.65344 27.3 0L28.2 1.78571C26.1333 2.6455 24.3333 4.00132 22.8 5.85318C21.3333 7.70503 20.6 9.58995 20.6 11.5079C20.6 12.3016 20.7 12.996 20.9 13.5913C21.9667 12.7315 23.2 12.3016 24.6 12.3016C26.3333 12.3016 27.8333 12.8638 29.1 13.9881C30.3667 15.1124 31 16.6667 31 18.6508C31 20.5026 30.3667 22.0238 29.1 23.2143C27.8333 24.4048 26.3333 25 24.6 25Z" fill="#0A4B9B"/>
</svg>
