<svg width="157" height="135" viewBox="0 0 157 135" fill="none" xmlns="http://www.w3.org/2000/svg">
<path d="M12.999 90.8501C12.27 89.6169 10.6524 89.2238 9.38592 89.9723L0 74.0923C10.2723 68.0208 23.3928 71.2085 29.3055 81.2121L48.8106 114.213C49.5395 115.446 51.1571 115.839 52.4236 115.091C53.69 114.342 54.1257 112.735 53.3968 111.502L33.8917 78.5014C27.979 68.4978 31.5132 55.4663 41.7857 49.3948C52.0578 43.3234 65.1782 46.5111 71.0909 56.5148L90.596 89.5154C91.3249 90.7487 92.9428 91.1416 94.2091 90.3932C95.4754 89.6447 95.9113 88.0379 95.1824 86.8046L75.6773 53.804C69.7646 43.8004 73.2987 30.769 83.5708 24.6976C93.8435 18.6259 106.964 21.8137 112.877 31.8173L132.382 64.8179C133.111 66.0512 134.728 66.4444 135.995 65.6957C137.261 64.9472 137.697 63.3404 136.968 62.1072L117.463 29.1065C111.55 19.1029 115.084 6.07148 125.357 0.000104497L134.742 15.8801C133.476 16.6286 133.04 18.2354 133.769 19.4687L153.274 52.4693C159.187 62.4729 155.653 75.5043 145.381 81.5757C135.108 87.6474 121.988 84.4596 116.075 74.456L96.5699 41.4554C95.8409 40.2221 94.2235 39.8289 92.9568 40.5776C91.6905 41.3261 91.2546 42.9329 91.9835 44.1662L111.489 77.1668C117.401 87.1703 113.867 100.202 103.595 106.273C93.3228 112.345 80.2024 109.157 74.2898 99.1532L54.7847 66.1526C54.0557 64.9193 52.4379 64.5264 51.1716 65.2748C49.9048 66.0236 49.4694 67.6301 50.1983 68.8634L69.7034 101.864C75.616 111.868 72.0818 124.899 61.8095 130.971C51.5372 137.042 38.4167 133.854 32.504 123.851L12.999 90.8501Z" fill="#0A4B9B"/>
</svg>
