<svg xmlns="http://www.w3.org/2000/svg" version="1.1" xmlns:xlink="http://www.w3.org/1999/xlink" width="512" height="512" x="0" y="0" viewBox="0 0 512 512" style="enable-background:new 0 0 512 512" xml:space="preserve" class=""><g><path d="m144.339 259.884-14.26 13.383c-6.071 5.698-10.14 12.8-12.05 20.4H21.722c-1.519 0-2.827-.605-3.811-1.763-.983-1.158-1.37-2.545-1.124-4.045 8.182-49.972 51.559-88.106 103.845-88.106 17.131 0 33.305 4.094 47.598 11.356-8.133 5.752-14.121 14.392-16.542 24.729l-4.46 19.04c-.499 2.13-1.294 3.509-2.889 5.006zm350.877 27.975c-8.183-49.972-51.559-88.105-103.845-88.105-17.13 0-33.304 4.094-47.598 11.355 8.133 5.753 14.121 14.393 16.542 24.729l4.46 19.04c.499 2.13 1.295 3.509 2.89 5.005l14.259 13.383c6.071 5.698 10.14 12.8 12.05 20.4h96.307a4.98 4.98 0 0 0 4.935-5.807zM256.003 135.784c34.458 0 62.392-27.934 62.392-62.392S290.461 11 256.003 11s-62.392 27.934-62.392 62.392 27.934 62.392 62.392 62.392zm82.955 281.381c-1.408.766-2.393 1.72-3.363 3.203l-10.704 16.366c-9.002 13.764-24.75 20.79-40.597 18.66l20.61 44.268c.79 1.698 3.157 1.804 4.098.186l17.888-30.782 35.071 6.128c1.847.323 3.288-1.557 2.496-3.256zm-47.457-112.253-19.683.038c-2.266.004-4.193-1.396-4.89-3.553l-6.046-18.731c-1.518-4.702-8.241-4.701-9.759 0l-6.046 18.732c-.696 2.157-2.624 3.557-4.89 3.552l-19.683-.038c-4.97-.009-7.042 6.368-3.016 9.282l15.946 11.539c1.836 1.329 2.572 3.594 1.868 5.748l-6.118 18.708c-1.543 4.717 3.886 8.661 7.896 5.736l15.902-11.6c1.831-1.335 4.213-1.335 6.043 0l15.902 11.6c4.01 2.924 9.438-1.019 7.896-5.736l-6.118-18.708c-.705-2.154.031-4.419 1.867-5.748l15.946-11.539c4.025-2.913 1.953-9.291-3.017-9.282zm79.477-19.981c8.538 8.013 10.69 20.22 5.408 30.67-13.753 27.207-12.73 21.407-9.112 51.677 1.39 11.627-4.808 22.361-15.572 26.971-28.024 12.001-23.511 8.216-40.198 33.729-6.409 9.8-18.056 14.039-29.265 10.652-29.182-8.819-23.292-8.82-52.474 0-11.208 3.387-22.856-.852-29.265-10.652-16.686-25.513-12.174-21.728-40.198-33.729-10.764-4.61-16.961-15.344-15.572-26.971 3.618-30.27 4.642-24.47-9.112-51.677-5.282-10.45-3.13-22.657 5.408-30.67 22.229-20.863 19.284-15.762 26.237-45.444 2.67-11.401 12.166-19.368 23.857-20.019 30.438-1.693 24.904.321 49.31-17.947 9.374-7.017 21.769-7.017 31.143 0 24.406 18.268 18.871 16.254 49.31 17.947 11.691.65 21.187 8.618 23.857 20.019 6.954 29.682 4.01 24.582 26.238 45.444zm-46.648 33.09c0-37.736-30.591-68.327-68.328-68.327s-68.327 30.591-68.327 68.327 30.591 68.328 68.327 68.328 68.328-30.592 68.328-68.328zM176.409 420.368c-.97-1.483-1.955-2.436-3.362-3.203l-25.5 54.772c-.792 1.699.649 3.578 2.496 3.256l35.072-6.128 17.888 30.782c.941 1.618 3.309 1.511 4.098-.186l20.609-44.268c-28.012 3.766-38.523-15.486-51.301-35.025zm214.963-230.614c29.386 0 53.208-23.823 53.208-53.209s-23.822-53.208-53.208-53.208-53.208 23.823-53.208 53.208c-.001 29.386 23.821 53.209 53.208 53.209zm-230.519.863a121.294 121.294 0 0 1 26.468 13.142c6.961-.858 23.238.142 27.869-3.325l15.656-11.718c15.056-11.269 35.26-11.269 50.315 0l15.656 11.718c4.635 3.469 20.904 2.464 27.868 3.325a121.317 121.317 0 0 1 26.468-13.142c-22.633-27.381-56.851-44.833-95.149-44.833-38.301 0-72.519 17.451-95.151 44.833zm-40.219-.863c29.386 0 53.208-23.823 53.208-53.209s-23.823-53.208-53.208-53.208c-29.386 0-53.209 23.823-53.209 53.208 0 29.386 23.823 53.209 53.209 53.209z" fill="#ff9d00" opacity="1" data-original="#000000" class=""></path></g></svg>