<svg xmlns="http://www.w3.org/2000/svg" version="1.1" xmlns:xlink="http://www.w3.org/1999/xlink" width="512" height="512" x="0" y="0" viewBox="0 0 60 60" style="enable-background:new 0 0 512 512" xml:space="preserve" class=""><g><path d="m7.345 50.986 2.506-4.463-1.77-4.129a1 1 0 1 1 1.838-.788l1.961 4.576A3 3 0 0 0 14.638 48H20.5a1.5 1.5 0 0 0 0-3h-4.012a2.982 2.982 0 0 1-2.874-2.138l-1.5-5.011A3.974 3.974 0 0 0 8.28 35a5.049 5.049 0 0 0-4.987 4.366C3.281 39.46 2 50.142 2 57a1 1 0 0 0 1 1h4.184A2.966 2.966 0 0 1 7 57v-4.7a2.682 2.682 0 0 1 .345-1.314ZM9.132 33.068a5.951 5.951 0 0 1 2.395.9A4.407 4.407 0 0 0 12 34a4.906 4.906 0 0 0 3.526-1.491A5.174 5.174 0 0 0 17 28.88v-1.76a5.181 5.181 0 0 0-1.477-3.633A4.907 4.907 0 0 0 12 22a5.067 5.067 0 0 0-5 5.12v1.76a5.128 5.128 0 0 0 2.132 4.188ZM43 28.88a5.181 5.181 0 0 0 1.477 3.633A4.907 4.907 0 0 0 48 34a4.445 4.445 0 0 0 .474-.035 5.941 5.941 0 0 1 2.394-.9A5.128 5.128 0 0 0 53 28.88v-1.76A5.067 5.067 0 0 0 48 22a4.906 4.906 0 0 0-3.526 1.491A5.174 5.174 0 0 0 43 27.12ZM56.705 39.354A5.045 5.045 0 0 0 51.72 35a3.974 3.974 0 0 0-3.831 2.851l-1.5 5.011A2.982 2.982 0 0 1 43.512 45H39.5a1.5 1.5 0 0 0 0 3h5.862a3 3 0 0 0 2.758-1.818l1.961-4.576a1 1 0 0 1 1.838.788l-1.77 4.129 2.5 4.457A2.692 2.692 0 0 1 53 52.3V57a2.966 2.966 0 0 1-.184 1H57a1 1 0 0 0 1-1c0-6.858-1.281-17.54-1.295-17.646Z" fill="#ff9d00" opacity="1" data-original="#000000" class=""></path><path d="M48.947 48.468A4.982 4.982 0 0 1 45.362 50H39.5a3.5 3.5 0 0 1 0-7h4.012a1 1 0 0 0 .958-.713l.348-1.162-.909-1.614A1 1 0 0 0 43.03 39H16.97a1.006 1.006 0 0 0-.882.517l-.906 1.609.348 1.162a1 1 0 0 0 .958.712H20.5a3.5 3.5 0 0 1 0 7h-5.862a4.982 4.982 0 0 1-3.585-1.532L9.092 51.96A.689.689 0 0 0 9 52.3a.7.7 0 0 0 .7.7h40.6a.7.7 0 0 0 .7-.7.694.694 0 0 0-.095-.345ZM9.7 55a2.656 2.656 0 0 1-.7-.1V57a1 1 0 0 0 1 1h40a1 1 0 0 0 1-1v-2.1a2.656 2.656 0 0 1-.7.1ZM37 15h-4.779A2.982 2.982 0 0 1 30 16h-5v1a1 1 0 0 0 1 1h6a.993.993 0 0 1 .594.2l5.09 3.76a.156.156 0 0 0 .183.023.251.251 0 0 0 .133-.242V19a1 1 0 0 1 1-1h3a1 1 0 0 0 1-1V7a1 1 0 0 0-1-1h-9v3h6a1 1 0 0 1 0 2h-6v2h4a1 1 0 0 1 0 2Z" fill="#ff9d00" opacity="1" data-original="#000000" class=""></path><path d="M14 14h3a1 1 0 0 1 1 1v2.741a.252.252 0 0 0 .134.239.153.153 0 0 0 .176-.019l5.1-3.765A1 1 0 0 1 24 14h6a1 1 0 0 0 1-1V3a1 1 0 0 0-1-1H14a1 1 0 0 0-1 1v10a1 1 0 0 0 1 1Zm3-9h10a1 1 0 0 1 0 2H17a1 1 0 0 1 0-2Zm0 4h8a1 1 0 0 1 0 2h-8a1 1 0 0 1 0-2Z" fill="#ff9d00" opacity="1" data-original="#000000" class=""></path></g></svg>