<svg xmlns="http://www.w3.org/2000/svg" version="1.1" xmlns:xlink="http://www.w3.org/1999/xlink" width="512" height="512" x="0" y="0" viewBox="0 0 64 64" style="enable-background:new 0 0 512 512" xml:space="preserve" class=""><g><path d="M9.5 48h3.7v15H9.5c-.6 0-1-.4-1-1V49c0-.6.5-1 1-1zM54.8 48.7 38.5 61.6c-.6.4-1.4.6-2.2.4l-16.1-3.5h-.1c-1.1-.2-2.2.1-3.3.7l-1.6 1v-9.6l6.8-4.1c.6-.2 1.2-.2 1.8 0l14.5 5.2c1.3.5 1.8 2 1 3.2-.6.8-1.6 1.1-2.6.7l-8.6-3.4c-.5-.2-1.1.1-1.3.6s.1 1.1.6 1.3l8.6 3.3c1.8.8 3.8.2 4.9-1.3.8-1.1 1.1-2.5.5-3.9l9.5-5.7c1-.6 2.2-.8 3.3-.4 1.5.5 1.6 1.9.6 2.6zM45.6 39.3c0 1.6-1.3 3-3 3h-9.1c-1.6 0-3-1.3-3-3 0-1.6 1.3-3 3-3h9.1c1.7.1 3 1.4 3 3z" fill="#ff9d00" opacity="1" data-original="#000000" class=""></path><path d="M33.5 44.3h-.4l.1 1.1c.1.5.5.9 1 .9H42c.5 0 .9-.4 1-.9l.1-1.2h-9.6zM37.4 9.1c-7.1.3-13 6.4-13.1 13.5-.1 8.1 6.1 11.3 6.8 12.3.7-.4 1.5-.6 2.3-.6 8.4.2 9.6-.4 11.4.6.2-.3.5-.6.9-.8 3.7-2.6 6-6.8 6-11.3.1-7.7-6.4-14-14.3-13.7zm8.4 14.7c-.6 0-1-.4-1-1 0-3.8-3.2-6.9-7-6.7-.6 0-1-.4-1-1s.4-1 1-1c5-.2 9.1 3.8 9.1 8.7-.1.6-.6 1-1.1 1zM38.1 6.9c-.6 0-1-.4-1-1V2c0-.6.4-1 1-1s1 .4 1 1v3.9c0 .6-.5 1-1 1zM31 7.4l-1.5-3.6c-.2-.5 0-1.1.5-1.3s1.1 0 1.3.5l1.5 3.6c.2.5 0 1.1-.5 1.3-.5.3-1.1.1-1.3-.5zM26 11.2l-2.8-2.8c-.4-.4-.4-1 0-1.4s1-.4 1.4 0l2.8 2.8c.4.4.4 1 0 1.4s-1 .4-1.4 0zM48.7 11.4c-.4-.4-.4-1 0-1.4l2.8-2.8c.4-.4 1-.4 1.4 0s.4 1 0 1.4l-2.8 2.8c-.4.4-1 .4-1.4 0zM43.8 8.1c-.5-.2-.8-.8-.5-1.3l1.5-3.6c.2-.5.8-.8 1.3-.5.5.2.8.8.5 1.3l-1.5 3.6c-.2.5-.8.7-1.3.5z" fill="#ff9d00" opacity="1" data-original="#000000" class=""></path></g></svg>