<svg xmlns="http://www.w3.org/2000/svg" version="1.1" xmlns:xlink="http://www.w3.org/1999/xlink" width="512" height="512" x="0" y="0" viewBox="0 0 24 24" style="enable-background:new 0 0 512 512" xml:space="preserve" class=""><g><path d="M20 16c-1.103 0-2-.897-2-2s.897-2 2-2 2 .897 2 2-.897 2-2 2zM4 16c-1.103 0-2-.897-2-2s.897-2 2-2 2 .897 2 2-.897 2-2 2zM12 16.5c-1.654 0-3-1.346-3-3s1.346-3 3-3 3 1.346 3 3-1.346 3-3 3zM16.75 23h-9.5a.75.75 0 0 1-.75-.75v-1.5A2.752 2.752 0 0 1 9.25 18h5.5a2.752 2.752 0 0 1 2.75 2.75v1.5a.75.75 0 0 1-.75.75zM21.25 17h-2.5c-.32 0-.62.05-.9.15 1.177 1.026 1.65 2.303 1.65 3.85h3.75c.41 0 .75-.34.75-.75v-.5c0-1.52-1.23-2.75-2.75-2.75zM5.25 17h-2.5C1.23 17 0 18.23 0 19.75v.5c0 .41.34.75.75.75H4.5c0-1.547.473-2.824 1.65-3.85-.28-.1-.58-.15-.9-.15zM15.467 9H8.533a.75.75 0 0 1-.737-.611l-.783-4.167a.75.75 0 0 1 1.041-.824l1.68.746 1.618-2.771c.27-.461 1.026-.461 1.296 0l1.618 2.771 1.68-.746a.752.752 0 0 1 1.042.824l-.783 4.167a.751.751 0 0 1-.738.611z" fill="#ff9d00" opacity="1" data-original="#000000" class=""></path></g></svg>